<svg width="220" height="40" viewBox="0 0 220 40" fill="none" xmlns="http://www.w3.org/2000/svg">
<path d="M46.1755 28.2295L40.9236 33.8782C40.81 34.0009 40.6724 34.0988 40.5194 34.1658C40.3665 34.2328 40.2014 34.2675 40.0344 34.2677H15.1384C15.0197 34.2676 14.9035 34.2328 14.8042 34.1675C14.7049 34.1023 14.6267 34.0094 14.5792 33.9002C14.5317 33.791 14.5169 33.6704 14.5368 33.5529C14.5566 33.4355 14.6102 33.3264 14.6909 33.239L19.9368 27.5903C20.0504 27.4676 20.188 27.3697 20.341 27.3027C20.4939 27.2357 20.659 27.201 20.826 27.2008H45.722C45.8417 27.1983 45.9597 27.2314 46.0608 27.296C46.1618 27.3606 46.2419 27.4537 46.2902 27.5637C46.3388 27.6736 46.3536 27.7955 46.3331 27.914C46.3127 28.0325 46.2579 28.1422 46.1755 28.2295ZM40.9236 16.8517C40.8096 16.7296 40.6719 16.6321 40.519 16.5651C40.3662 16.4981 40.2012 16.4631 40.0344 16.4623H15.1384C15.0197 16.4623 14.9035 16.4971 14.8042 16.5624C14.7049 16.6277 14.6267 16.7206 14.5792 16.8297C14.5317 16.9389 14.5169 17.0596 14.5368 17.177C14.5566 17.2945 14.6102 17.4036 14.6909 17.4909L19.9368 23.1427C20.0508 23.2648 20.1885 23.3623 20.3414 23.4293C20.4942 23.4962 20.6592 23.5312 20.826 23.5321H45.722C45.8406 23.5315 45.9561 23.4962 46.0551 23.4308C46.1541 23.3653 46.2318 23.2723 46.2789 23.1633C46.326 23.0542 46.3405 22.9338 46.3204 22.8166C46.3005 22.6994 46.2472 22.5906 46.1666 22.5035L40.9236 16.8517ZM15.1384 12.7935H40.0344C40.2014 12.7934 40.3665 12.7587 40.5194 12.6917C40.6724 12.6247 40.81 12.5268 40.9236 12.4041L46.1755 6.75536C46.2579 6.66811 46.3127 6.55834 46.3331 6.43987C46.3536 6.32139 46.3388 6.19951 46.2902 6.08955C46.2419 5.97959 46.1618 5.88647 46.0608 5.8219C45.9597 5.75734 45.8417 5.72421 45.722 5.72669H20.826C20.659 5.72687 20.4939 5.76154 20.341 5.82855C20.188 5.89556 20.0504 5.99346 19.9368 6.11616L14.6909 11.7649C14.6102 11.8523 14.5566 11.9614 14.5368 12.0788C14.5169 12.1962 14.5317 12.3169 14.5792 12.4261C14.6267 12.5352 14.7049 12.6282 14.8042 12.6934C14.9035 12.7587 15.0197 12.7935 15.1384 12.7935Z" fill="url(#paint0_linear_32033_5782)"/>
<path d="M76.528 17.8002H63.2087V13.4001H79.9898V9.00006H63.1642C62.5892 8.99694 62.0196 9.10742 61.4873 9.32519C60.955 9.543 60.4704 9.86382 60.062 10.2694C59.6533 10.6749 59.3281 11.1573 59.1053 11.6888C58.8824 12.2204 58.7659 12.7908 58.7629 13.3674V17.827C58.7653 18.4041 58.8809 18.9752 59.1035 19.5074C59.3261 20.0397 59.6509 20.5227 60.0596 20.9289C60.4686 21.3351 60.9532 21.6564 61.4858 21.8746C62.0184 22.0927 62.5889 22.2034 63.1642 22.2003H76.5014V26.6003H59.0801V31.0004H76.528C77.103 31.0036 77.6727 30.893 78.205 30.6753C78.7373 30.4575 79.2216 30.1367 79.6303 29.7311C80.039 29.3256 80.3641 28.8432 80.587 28.3117C80.8099 27.7801 80.9263 27.2097 80.9293 26.633V22.1735C80.9269 21.5964 80.8113 21.0253 80.5888 20.4931C80.3662 19.9608 80.0413 19.4778 79.6326 19.0716C79.2236 18.6654 78.739 18.3441 78.2064 18.1259C77.6739 17.9078 77.1033 17.7971 76.528 17.8002Z" fill="white"/>
<path d="M102.331 9.00015H88.961C88.3851 8.99545 87.814 9.10477 87.2802 9.32186C86.7467 9.53895 86.2609 9.8595 85.851 10.2652C85.4408 10.6709 85.1148 11.1538 84.8914 11.6861C84.6676 12.2185 84.5508 12.7899 84.5479 13.3675V26.6331C84.5508 27.2108 84.6676 27.7822 84.8914 28.3145C85.1148 28.8469 85.4408 29.3297 85.851 29.7354C86.2609 30.1411 86.7467 30.4617 87.2802 30.6788C87.814 30.8959 88.3851 31.0052 88.961 31.0005H102.331C102.906 31.0036 103.475 30.8931 104.008 30.6754C104.54 30.4576 105.025 30.1367 105.433 29.7312C105.842 29.3256 106.167 28.8433 106.39 28.3117C106.613 27.7802 106.729 27.2098 106.732 26.6331V13.3675C106.729 12.7909 106.613 12.2205 106.39 11.6889C106.167 11.1573 105.842 10.675 105.433 10.2694C105.025 9.8639 104.54 9.54308 104.008 9.32527C103.475 9.1075 102.906 8.99702 102.331 9.00015ZM102.298 26.6004H88.9936V13.4002H102.292L102.298 26.6004Z" fill="white"/>
<path d="M149.159 9.00033H136.118C135.543 8.9972 134.974 9.10768 134.441 9.32545C133.909 9.54326 133.424 9.86408 133.016 10.2696C132.607 10.6752 132.282 11.1575 132.059 11.6891C131.836 12.2206 131.72 12.791 131.717 13.3677V31.0007H136.163V23.7733H149.144V31.0007H153.59V13.3677C153.587 12.7885 153.47 12.2157 153.245 11.6821C153.02 11.1486 152.692 10.665 152.28 10.259C151.869 9.85308 151.381 9.53288 150.845 9.31686C150.309 9.10084 149.736 8.99328 149.159 9.00033ZM149.126 19.3732H136.145V13.4004H149.126V19.3732Z" fill="white"/>
<path d="M201.07 9.00006H188.03C187.455 8.99694 186.885 9.10742 186.353 9.32519C185.82 9.543 185.336 9.86382 184.927 10.2694C184.519 10.6749 184.194 11.1573 183.971 11.6888C183.748 12.2204 183.631 12.7908 183.628 13.3674V31.0004H188.074V23.773H201.026V31.0004H205.472V13.3674C205.469 12.7908 205.352 12.2204 205.129 11.6888C204.907 11.1573 204.581 10.6749 204.173 10.2694C203.764 9.86382 203.28 9.543 202.747 9.32519C202.215 9.10742 201.645 8.99694 201.07 9.00006ZM201.026 19.3729H188.045V13.4001H201.026V19.3729Z" fill="white"/>
<path d="M175.241 26.6003H173.462L167.105 10.8433C166.887 10.2997 166.512 9.83379 166.029 9.50539C165.545 9.17696 164.974 9.00099 164.39 9.00004H160.445C160.062 8.99808 159.682 9.0719 159.327 9.21725C158.972 9.36263 158.649 9.57668 158.377 9.84723C158.104 10.1178 157.888 10.4395 157.739 10.7941C157.591 11.1486 157.513 11.529 157.511 11.9136V31.0004H161.957V13.4001H163.735L170.09 29.1571C170.311 29.6997 170.689 30.1637 171.175 30.4899C171.66 30.8161 172.232 30.9897 172.816 30.9885H176.761C177.145 30.9904 177.525 30.9167 177.879 30.7713C178.235 30.6259 178.557 30.4118 178.83 30.1413C179.102 29.8707 179.319 29.549 179.467 29.1945C179.616 28.8399 179.693 28.4595 179.695 28.0749V9.00004H175.241V26.6003Z" fill="white"/>
<path d="M115.105 9H110.659V26.633C110.662 27.2109 110.779 27.7825 111.003 28.3151C111.227 28.8476 111.553 29.3306 111.963 29.7363C112.373 30.1421 112.86 30.4626 113.394 30.6795C113.928 30.8964 114.499 31.0054 115.075 31.0003H128.412V26.6003H115.105V9Z" fill="white"/>
<defs>
<linearGradient id="paint0_linear_32033_5782" x1="17.2131" y1="34.9485" x2="43.409" y2="5.50707" gradientUnits="userSpaceOnUse">
<stop offset="0.08" stop-color="#9945FF"/>
<stop offset="0.3" stop-color="#8752F3"/>
<stop offset="0.5" stop-color="#5497D5"/>
<stop offset="0.6" stop-color="#43B4CA"/>
<stop offset="0.72" stop-color="#28E0B9"/>
<stop offset="0.97" stop-color="#19FB9B"/>
</linearGradient>
</defs>
</svg>
