<svg width="215" height="42" viewBox="0 0 215 42" fill="none" xmlns="http://www.w3.org/2000/svg">
<path fill-rule="evenodd" clip-rule="evenodd" d="M136.527 31.9141C134.887 31.9141 133.415 31.6536 132.113 31.1328C130.811 30.599 129.704 29.8633 128.793 28.9258C127.895 27.9883 127.204 26.901 126.723 25.6641C126.241 24.4141 126 23.0859 126 21.6797V20.8984C126 19.2969 126.228 17.832 126.684 16.5039C127.139 15.1758 127.79 14.0234 128.637 13.0469C129.496 12.0703 130.538 11.3216 131.762 10.8008C132.986 10.2669 134.366 10 135.902 10C137.4 10 138.728 10.2474 139.887 10.7422C141.046 11.237 142.016 11.9401 142.797 12.8516C143.591 13.763 144.19 14.8568 144.594 16.1328C144.997 17.3958 145.199 18.8021 145.199 20.3516V22.6953H131.705C131.761 23.1604 131.859 23.6032 131.996 24.0234C132.243 24.7396 132.589 25.3581 133.031 25.8789C133.487 26.3997 134.034 26.8034 134.672 27.0898C135.323 27.3763 136.059 27.5195 136.879 27.5195C137.895 27.5195 138.839 27.3242 139.711 26.9336C140.596 26.5299 141.358 25.9245 141.996 25.1172L144.73 28.0859C144.288 28.724 143.682 29.3359 142.914 29.9219C142.159 30.5078 141.247 30.9896 140.18 31.3672C139.112 31.7318 137.895 31.9141 136.527 31.9141ZM131.879 18.3203C131.838 18.5234 131.803 18.7317 131.773 18.9453H139.672V18.5156C139.672 17.7344 139.529 17.0378 139.242 16.4258C138.969 15.8008 138.552 15.306 137.992 14.9414C137.432 14.5768 136.716 14.3945 135.844 14.3945C135.102 14.3945 134.464 14.5573 133.93 14.8828C133.396 15.2083 132.96 15.6641 132.621 16.25C132.296 16.8359 132.048 17.526 131.879 18.3203ZM65.875 30.6914C66.111 30.4722 66.3288 30.247 66.5285 30.0158C66.6703 30.8025 66.8692 31.464 67.125 32H72.8086V31.668C72.5352 31.1211 72.3268 30.4831 72.1836 29.7539C72.0404 29.0117 71.9688 28.0612 71.9688 26.9023V17.8594C71.9688 16.2188 71.5977 14.8516 70.8555 13.7578C70.1263 12.6641 69.1237 11.8438 67.8477 11.2969C66.5716 10.75 65.1133 10.4766 63.4727 10.4766C62.1055 10.4766 60.8685 10.6523 59.7617 11.0039C58.668 11.3555 57.724 11.8438 56.9297 12.4688C56.1354 13.0807 55.5299 13.7904 55.1133 14.5977C54.6966 15.4049 54.4883 16.2578 54.4883 17.1562H60.1133C60.1133 16.6224 60.237 16.1602 60.4844 15.7695C60.7318 15.3659 61.0833 15.0599 61.5391 14.8516C61.9948 14.6302 62.5352 14.5195 63.1602 14.5195C63.8893 14.5195 64.4818 14.6562 64.9375 14.9297C65.4062 15.2031 65.7513 15.5872 65.9727 16.082C66.194 16.5638 66.3047 17.1432 66.3047 17.8203V19.1289H63.7852C62.1706 19.1289 60.7513 19.2852 59.5273 19.5977C58.3034 19.8971 57.2812 20.3464 56.4609 20.9453C55.6536 21.5312 55.0417 22.2539 54.625 23.1133C54.2083 23.9727 54 24.9557 54 26.0625C54 27.2865 54.3125 28.3802 54.9375 29.3438C55.5755 30.2943 56.4349 31.043 57.5156 31.5898C58.6094 32.1237 59.8268 32.3906 61.168 32.3906C62.2227 32.3906 63.1341 32.2344 63.9023 31.9219C64.6706 31.5964 65.3281 31.1862 65.875 30.6914ZM66.0508 26.4336C66.1485 26.2961 66.2331 26.1606 66.3047 26.0271V22.3125H63.9414C63.1992 22.3125 62.5547 22.3971 62.0078 22.5664C61.4609 22.7357 61.0117 22.9766 60.6602 23.2891C60.3086 23.5885 60.0482 23.9401 59.8789 24.3438C59.7227 24.7474 59.6445 25.1901 59.6445 25.6719C59.6445 26.1536 59.7552 26.5898 59.9766 26.9805C60.1979 27.3581 60.5169 27.6576 60.9336 27.8789C61.3503 28.0872 61.8385 28.1914 62.3984 28.1914C63.2448 28.1914 63.9805 28.0221 64.6055 27.6836C65.2305 27.3451 65.7122 26.9284 66.0508 26.4336ZM162.875 30.6914C163.111 30.4722 163.329 30.247 163.528 30.0158C163.67 30.8025 163.869 31.464 164.125 32H169.809V31.668C169.535 31.1211 169.327 30.4831 169.184 29.7539C169.04 29.0117 168.969 28.0612 168.969 26.9023V17.8594C168.969 16.2188 168.598 14.8516 167.855 13.7578C167.126 12.6641 166.124 11.8438 164.848 11.2969C163.572 10.75 162.113 10.4766 160.473 10.4766C159.105 10.4766 157.868 10.6523 156.762 11.0039C155.668 11.3555 154.724 11.8438 153.93 12.4688C153.135 13.0807 152.53 13.7904 152.113 14.5977C151.697 15.4049 151.488 16.2578 151.488 17.1562H157.113C157.113 16.6224 157.237 16.1602 157.484 15.7695C157.732 15.3659 158.083 15.0599 158.539 14.8516C158.995 14.6302 159.535 14.5195 160.16 14.5195C160.889 14.5195 161.482 14.6562 161.938 14.9297C162.406 15.2031 162.751 15.5872 162.973 16.082C163.194 16.5638 163.305 17.1432 163.305 17.8203V19.1289H160.785C159.171 19.1289 157.751 19.2852 156.527 19.5977C155.303 19.8971 154.281 20.3464 153.461 20.9453C152.654 21.5312 152.042 22.2539 151.625 23.1133C151.208 23.9727 151 24.9557 151 26.0625C151 27.2865 151.312 28.3802 151.938 29.3438C152.576 30.2943 153.435 31.043 154.516 31.5898C155.609 32.1237 156.827 32.3906 158.168 32.3906C159.223 32.3906 160.134 32.2344 160.902 31.9219C161.671 31.5964 162.328 31.1862 162.875 30.6914ZM163.051 26.4336C163.148 26.2961 163.233 26.1606 163.305 26.0271V22.3125H160.941C160.199 22.3125 159.555 22.3971 159.008 22.5664C158.461 22.7357 158.012 22.9766 157.66 23.2891C157.309 23.5885 157.048 23.9401 156.879 24.3438C156.723 24.7474 156.645 25.1901 156.645 25.6719C156.645 26.1536 156.755 26.5898 156.977 26.9805C157.198 27.3581 157.517 27.6576 157.934 27.8789C158.35 28.0872 158.839 28.1914 159.398 28.1914C160.245 28.1914 160.98 28.0221 161.605 27.6836C162.23 27.3451 162.712 26.9284 163.051 26.4336ZM181.004 32.1328H179.129L172 11H177.898L181.859 25.3485L185.809 11H191.688L184.559 32.1328H182.703H181.004ZM201.113 31.1329C202.415 31.6537 203.887 31.9141 205.527 31.9141C206.895 31.9141 208.112 31.7318 209.18 31.3673C210.247 30.9897 211.159 30.5079 211.914 29.9219C212.682 29.336 213.288 28.724 213.73 28.086L210.996 25.1173C210.358 25.9246 209.596 26.53 208.711 26.9337C207.839 27.3243 206.895 27.5196 205.879 27.5196C205.059 27.5196 204.323 27.3764 203.672 27.0899C203.034 26.8035 202.487 26.3998 202.031 25.879C201.589 25.3581 201.243 24.7397 200.996 24.0235C200.859 23.6032 200.761 23.1605 200.705 22.6954H214.199V20.3516C214.199 18.8022 213.997 17.3959 213.594 16.1329C213.19 14.8568 212.591 13.7631 211.797 12.8516C211.016 11.9402 210.046 11.2371 208.887 10.7423C207.728 10.2475 206.4 10.0001 204.902 10.0001C203.366 10.0001 201.986 10.267 200.762 10.8009C199.538 11.3217 198.496 12.0704 197.637 13.0469C196.79 14.0235 196.139 15.1759 195.684 16.504C195.228 17.8321 195 19.2969 195 20.8985V21.6798C195 23.086 195.241 24.4141 195.723 25.6641C196.204 26.9011 196.895 27.9884 197.793 28.9259C198.704 29.8634 199.811 30.599 201.113 31.1329ZM200.773 18.9454C200.803 18.7318 200.838 18.5234 200.879 18.3204C201.048 17.5261 201.296 16.836 201.621 16.2501C201.96 15.6641 202.396 15.2084 202.93 14.8829C203.464 14.5574 204.102 14.3946 204.844 14.3946C205.716 14.3946 206.432 14.5769 206.992 14.9415C207.552 15.3061 207.969 15.8009 208.242 16.4259C208.529 17.0378 208.672 17.7344 208.672 18.5157V18.9454H200.773ZM104.18 32H105.538H106.926H107.872L110.998 18.4458L114.128 32H115.089H116.477H117.82L122 11H117.743L115.606 24.6485L112.587 11H112.205H109.825H109.413L106.4 24.6632L104.241 11H100L104.18 32ZM84.625 18.1936V31.5607H79V10.4279H84.293L84.4919 13.1888C84.9624 12.5181 85.5433 11.9572 86.34 11.1878C86.3924 11.1373 86.4457 11.0858 86.5 11.0333C87.2682 10.5645 88.2448 10.0372 89.2344 10.0372C89.3229 10.0372 89.4227 10.0369 89.5657 10.0365C89.9277 10.0353 90.5665 10.0333 92 10.0333C92.3204 10.0328 92.722 10.0249 93.1268 10.0169C93.9855 9.99987 94.8584 9.98261 95 10.0357L94.5 15.0333C94.3514 15.0121 93.1514 15.0216 92.0236 15.0305C91.0755 15.0381 90.1784 15.0452 90 15.0333C89.7456 15.007 89.5219 15.0161 89.3075 15.0249C89.2036 15.0291 89.1019 15.0333 89 15.0333C88.2057 15.0333 87 15.5001 86.793 15.6622C86.7233 15.7168 86.5982 15.7891 86.448 15.8759C86.1522 16.0469 85.7591 16.2742 85.5 16.5333C85.1897 16.8542 84.8461 17.62 84.625 18.1936Z" fill="white"/>
<circle cx="21" cy="21" r="19" stroke="#FFFBFB" stroke-width="4"/>
<path d="M23.4673 25.2555V17.2471C23.4673 16.6712 23.3731 16.1783 23.1848 15.7684C22.9965 15.3475 22.703 15.0208 22.3043 14.7882C21.9166 14.5556 21.4126 14.4393 20.7923 14.4393C20.2606 14.4393 19.801 14.5334 19.4133 14.7217C19.0256 14.8989 18.7265 15.1592 18.5161 15.5026C18.3056 15.8349 18.2004 16.2281 18.2004 16.6822H13.4154C13.4154 15.918 13.5926 15.1925 13.947 14.5057C14.3015 13.819 14.8165 13.2153 15.4922 12.6947C16.1679 12.163 16.9709 11.7477 17.9014 11.4486C18.8429 11.1495 19.8951 11 21.0582 11C22.4538 11 23.6944 11.2326 24.7799 11.6978C25.8654 12.163 26.7182 12.8609 27.3385 13.7913C27.9699 14.7217 28.2856 15.8847 28.2856 17.2804V24.973C28.2856 25.9588 28.3465 26.7674 28.4683 27.3988C28.5902 28.019 28.7674 28.5618 29 29.027V29.3095H24.1651C23.9325 28.8221 23.7553 28.2129 23.6334 27.4818C23.5227 26.7397 23.4673 25.9976 23.4673 25.2555ZM24.0986 18.3603L24.1319 21.0685H21.4569C20.8255 21.0685 20.2773 21.1405 19.812 21.2845C19.3468 21.4285 18.9647 21.6334 18.6656 21.8993C18.3666 22.154 18.145 22.4531 18.001 22.7965C17.8681 23.1398 17.8017 23.5164 17.8017 23.9263C17.8017 24.3361 17.8958 24.7072 18.0841 25.0395C18.2724 25.3607 18.5438 25.6154 18.8982 25.8037C19.2527 25.981 19.6681 26.0696 20.1443 26.0696C20.8643 26.0696 21.4901 25.9256 22.0218 25.6376C22.5535 25.3496 22.9633 24.9952 23.2513 24.5742C23.5504 24.1533 23.7054 23.7546 23.7165 23.378L24.9792 25.405C24.802 25.8591 24.5583 26.3299 24.2482 26.8172C23.9491 27.3046 23.567 27.7643 23.1018 28.1963C22.6366 28.6172 22.0772 28.9661 21.4237 29.243C20.7702 29.5088 19.9948 29.6417 19.0976 29.6417C17.9567 29.6417 16.9211 29.4147 15.9907 28.9605C15.0713 28.4953 14.3403 27.8584 13.7975 27.0498C13.2658 26.2302 13 25.2998 13 24.2586C13 23.3171 13.1772 22.4808 13.5317 21.7497C13.8861 21.0187 14.4067 20.4039 15.0935 19.9055C15.7913 19.396 16.6608 19.0138 17.702 18.7591C18.7432 18.4933 19.9505 18.3603 21.324 18.3603H24.0986Z" fill="white"/>
</svg>
