<svg width="242" height="66" viewBox="0 0 242 66" fill="none" xmlns="http://www.w3.org/2000/svg">
<path d="M1 13V5L5 1H13" stroke="white" stroke-width="0.5"/>
<path d="M241 53V61L237 65H229" stroke="white" stroke-width="0.5"/>
<path d="M39.43 20L39.4345 28.1975C39.4345 28.2337 39.4201 28.2684 39.3945 28.294C39.3689 28.3196 39.3342 28.334 39.298 28.334L31.039 28.337C31.045 28.222 31.032 28.15 31 28.121V20.5835C31.06 20.2545 31.2545 20.06 31.5835 20H39.43Z" fill="white" fill-opacity="0.251"/>
<path d="M47.692 20C47.693 20.013 47.694 20.026 47.695 20.039C47.803 20.071 47.857 20.117 47.857 20.177C47.86 22.867 47.86 25.5475 47.857 28.2185C47.857 28.2897 47.7992 28.3475 47.728 28.3475L39.499 28.3445C39.4708 28.3445 39.448 28.3673 39.448 28.3955L39.4465 36.5045C39.4465 36.6155 39.3565 36.7055 39.2455 36.7055C36.5515 36.7015 33.8485 36.7015 31.1365 36.7055C31.1115 36.7055 31.091 36.6955 31.075 36.6755C31.057 36.6535 31.046 36.622 31.042 36.581C31.032 36.565 31.018 36.558 31 36.56V28.4735C31.025 28.4315 31.038 28.386 31.039 28.337L39.298 28.334C39.3342 28.334 39.3689 28.3196 39.3945 28.294C39.4201 28.2684 39.4345 28.2337 39.4345 28.1975L39.43 20H47.692Z" fill="white" fill-opacity="0.502"/>
<path d="M55.735 20C56.079 20.106 56.2515 20.2905 56.2525 20.5535C56.2685 23.1375 56.2705 25.7295 56.2585 28.3295L47.956 28.328C47.874 28.328 47.833 28.369 47.833 28.451V36.62C47.832 36.645 47.8185 36.661 47.7925 36.668L39.4495 36.6815C39.4288 36.6815 39.412 36.6983 39.412 36.719V45.026C36.91 45.03 34.3935 45.031 31.8625 45.029C31.4165 45.029 31.129 44.862 31 44.528V36.6845C31.038 36.6755 31.052 36.641 31.042 36.581C31.046 36.622 31.057 36.6535 31.075 36.6755C31.091 36.6955 31.1115 36.7055 31.1365 36.7055C33.8485 36.7015 36.5515 36.7015 39.2455 36.7055C39.3565 36.7055 39.4465 36.6155 39.4465 36.5045L39.448 28.3955C39.448 28.3673 39.4708 28.3445 39.499 28.3445L47.728 28.3475C47.7992 28.3475 47.857 28.2897 47.857 28.2185C47.86 25.5475 47.86 22.867 47.857 20.177C47.857 20.117 47.803 20.071 47.695 20.039C47.807 20.057 47.5 20 47.854 20H55.735Z" fill="white"/>
<path d="M56.2585 28.3296L56.251 36.6756L47.833 36.6201V28.4511C47.833 28.3691 47.874 28.3281 47.956 28.3281L56.2585 28.3296Z" fill="white" fill-opacity="0.502"/>
<path d="M56.251 36.6727C56.257 40.7457 56.252 43.3187 56.236 44.3917C56.23 44.8207 55.9935 45.0392 55.5265 45.0472H48.1L47.8495 45.0157L47.7925 36.6652C47.8185 36.6582 47.832 36.6422 47.833 36.6172L56.251 36.6727Z" fill="white" fill-opacity="0.251"/>
<path d="M47.7925 36.6641L47.8495 45.0146L46.6405 45.0461H46.279C46.198 45.0231 46.1175 45.0231 46.0375 45.0461H45.8665C45.8165 45.0231 45.7735 45.0231 45.7375 45.0461C45.7305 45.0451 45.724 45.0451 45.718 45.0461H45.139C45.131 45.0451 45.1235 45.0451 45.1165 45.0461C45.0235 45.0241 44.931 45.0241 44.839 45.0461H44.668H44.239H43.279C43.207 45.0241 43.1395 45.0241 43.0765 45.0461H39.7015C39.6195 45.0221 39.523 45.0141 39.412 45.0221V36.7151C39.412 36.6944 39.4288 36.6776 39.4495 36.6776L47.7925 36.6641Z" fill="white" fill-opacity="0.502"/>
<path fill-rule="evenodd" clip-rule="evenodd" d="M130.049 21.8203C129.055 21.8203 128.249 22.6262 128.249 23.6203V24.0673C128.249 25.0614 129.055 25.8673 130.049 25.8673H130.994C131.989 25.8673 132.794 25.0614 132.794 24.0673V23.6203C132.794 22.6262 131.989 21.8203 130.994 21.8203H130.049ZM74.176 31.5319C73.957 31.5989 73.959 31.6584 74.182 31.7104C76.096 32.1589 77.731 33.5104 78.0145 35.4724C78.3255 37.6204 77.768 39.3789 76.342 40.7479C74.7835 42.2449 72.3265 42.7594 70.1005 42.7549C67.0575 42.7499 64.0595 42.7494 61.1065 42.7534C61.0303 42.7534 60.9572 42.7227 60.9039 42.6682C60.8505 42.6138 60.8214 42.5401 60.823 42.4639C60.947 35.6939 60.9485 28.9279 60.8275 22.1659C60.8235 21.9359 60.936 21.8214 61.165 21.8224C63.994 21.8294 66.798 21.8289 69.577 21.8209C71.8195 21.8134 74.4385 22.0384 76.162 23.6344C77.5765 24.9439 77.8735 27.1219 77.233 28.8619C76.752 30.1669 75.733 31.0569 74.176 31.5319ZM65.407 25.0245L65.38 30.2115C65.38 30.2289 65.3941 30.243 65.4115 30.243L70.432 30.2685C71.8301 30.2755 72.9689 29.2078 72.976 27.8835L72.979 27.4305C72.9824 26.7942 72.7188 26.1826 72.2462 25.7302C71.7736 25.2779 71.1307 25.0218 70.459 25.0185L65.4385 24.993C65.4211 24.993 65.407 25.0071 65.407 25.0245ZM65.41 39.5558L65.377 33.4928C65.377 33.4688 65.3965 33.4493 65.4205 33.4493L70.5895 33.4223C71.3547 33.4181 72.09 33.7025 72.6338 34.2128C73.1776 34.7231 73.4852 35.4175 73.489 36.1433L73.492 36.8213C73.4999 38.3321 72.2153 39.5636 70.6225 39.5723L65.4535 39.5993C65.4295 39.5993 65.41 39.5798 65.41 39.5558ZM79.117 23.6327C79.117 22.633 79.9274 21.8227 80.927 21.8227H81.864C82.8636 21.8227 83.674 22.633 83.674 23.6327V24.0597C83.674 25.0593 82.8636 25.8697 81.864 25.8697H80.927C79.9274 25.8697 79.117 25.0593 79.117 24.0597V23.6327ZM86.6515 30.5259L85.012 30.5304C84.8554 30.5304 84.7285 30.4042 84.7285 30.2484L84.7315 27.6129C84.7315 27.5415 84.76 27.4729 84.8107 27.4225C84.8614 27.3721 84.93 27.344 85.0015 27.3444L86.6125 27.3459C86.6466 27.3459 86.6792 27.3325 86.7032 27.3085C86.7271 27.2845 86.7404 27.2521 86.74 27.2184L86.71 23.7114C86.7096 23.6567 86.7311 23.604 86.7697 23.5652C86.8082 23.5263 86.8607 23.5044 86.9155 23.5044L90.961 23.4984C91.123 23.4984 91.203 23.5794 91.201 23.7414L91.1755 27.2679C91.1751 27.2889 91.1833 27.3091 91.1982 27.3241C91.2132 27.339 91.2337 27.3474 91.255 27.3474L94.597 27.3384C94.6724 27.338 94.7449 27.3679 94.7984 27.4214C94.8519 27.4749 94.882 27.5476 94.882 27.6234V30.2799C94.882 30.4175 94.7712 30.5289 94.6345 30.5289L91.2625 30.5304C91.1975 30.5304 91.1655 30.5624 91.1665 30.6264C91.1945 33.0384 91.203 35.4549 91.192 37.8759C91.1875 39.0174 91.474 39.8259 92.7865 39.8484C93.3005 39.8564 93.803 39.7949 94.294 39.6639C94.42 39.6299 94.547 39.6019 94.675 39.5799C94.7159 39.5729 94.7578 39.584 94.7896 39.6103C94.8214 39.6366 94.8398 39.6754 94.84 39.7164C94.85 40.4604 94.852 41.2899 94.846 42.2049C94.845 42.3719 94.7655 42.4824 94.6075 42.5364C92.7385 43.1694 90.451 43.3509 88.6975 42.2514C86.9455 41.1534 86.677 39.4359 86.7025 37.3389C86.7325 34.8869 86.7425 32.6424 86.7325 30.6054C86.7317 30.5613 86.6957 30.5259 86.6515 30.5259ZM95.491 34.3836C95.332 37.0911 96.052 39.8121 98.1775 41.5206C99.8395 42.8556 102.147 43.3026 104.241 43.0911C107.608 42.7491 110.091 40.6026 110.527 37.1616C110.535 37.1006 110.536 37.0501 110.53 37.0101C110.516 36.9074 110.436 36.8305 110.341 36.8301L106.56 36.8271C106.406 36.8268 106.279 36.9463 106.269 37.1001C106.135 39.0351 104.977 40.3311 102.966 40.1136C101.503 39.9561 100.647 38.9136 100.342 37.5561C100.018 36.1121 99.987 34.6091 100.249 33.0471C100.501 31.5381 101.274 30.2661 102.859 30.0366C104.676 29.7741 105.859 30.8601 106.162 32.6091C106.187 32.7511 106.272 32.8221 106.417 32.8221H110.118C110.175 32.8216 110.229 32.7969 110.267 32.7543C110.305 32.7117 110.323 32.6551 110.317 32.5986C110.082 30.4806 109.114 28.9261 107.413 27.9351C105.84 27.0171 103.716 26.7951 101.959 27.0621C97.954 27.6696 95.722 30.4806 95.491 34.3836ZM118.554 43.1075C121.437 43.3175 124.258 42.494 125.898 40.073C127.221 38.1185 127.498 35.5235 127.128 33.224C126.7 30.5705 125.139 28.388 122.592 27.494C120.142 26.6345 116.872 26.741 114.618 28.265C112.051 29.999 111.261 33.0815 111.517 36.1085C111.861 40.172 114.474 42.812 118.554 43.1075ZM122.55 36.7997C122.323 38.6207 121.465 40.1282 119.44 40.1582C116.203 40.2062 115.996 36.8267 116.061 34.4327C116.11 32.6132 116.574 30.4577 118.609 30.0452C120.082 29.7482 121.482 30.2777 122.104 31.7087C122.755 33.2087 122.748 35.1932 122.55 36.7997ZM170.188 36.8285L166.412 36.827C166.262 36.8266 166.138 36.9427 166.127 37.0925C165.973 39.347 164.32 40.718 162.117 39.947C161.207 39.629 160.597 38.925 160.286 37.835C159.897 36.47 159.833 34.9045 160.093 33.1385C160.363 31.292 161.428 29.93 163.393 29.9915C163.98 30.0105 164.488 30.1965 164.917 30.5495C165.6 31.112 165.842 31.835 166.049 32.672C166.072 32.7602 166.151 32.8221 166.243 32.822L169.999 32.819C170.047 32.8192 170.093 32.7991 170.126 32.7637C170.158 32.7283 170.174 32.6809 170.17 32.633C169.91 29.4275 167.564 27.389 164.453 27.038C160.257 26.564 156.489 28.4675 155.563 32.843C155.123 34.9265 155.28 37.343 156.196 39.194C157.205 41.233 158.891 42.4865 161.254 42.9545C165.55 43.8065 169.9 41.7695 170.395 37.058C170.401 36.9999 170.382 36.9418 170.343 36.8981C170.304 36.8543 170.247 36.8291 170.188 36.8285ZM171.401 33.7674C171.082 36.7569 171.791 39.8859 174.263 41.6934C176.296 43.1784 179.161 43.4304 181.555 42.8814C184.147 42.2874 186.006 40.5054 186.748 37.9239C187.373 35.7459 187.277 32.9034 186.238 30.8559C184.523 27.4809 180.754 26.4594 177.209 27.1599C173.77 27.8409 171.761 30.3939 171.401 33.7674ZM180.328 30.151C182.311 30.7945 182.505 33.3655 182.517 35.092C182.536 37.564 181.957 40.4755 178.791 40.1365C176.893 39.9325 176.191 38.338 176.004 36.6295C175.826 35.011 175.824 33.0835 176.485 31.6495C177.192 30.118 178.826 29.6635 180.328 30.151ZM138.344 29.2366C138.324 29.2297 138.31 29.21 138.31 29.1882L138.382 27.6447C138.386 27.5654 138.357 27.4878 138.303 27.4303C138.248 27.3727 138.172 27.3401 138.092 27.3402L134.356 27.3432C134.188 27.344 134.052 27.4792 134.052 27.6462L134.004 42.4797C134.003 42.6587 134.091 42.7482 134.271 42.7482H138.319C138.515 42.7482 138.612 42.6502 138.609 42.4542C138.569 39.6352 138.547 37.1382 138.544 34.9632C138.541 33.1302 139.227 31.0272 141.087 30.4197C142.407 29.9877 143.685 30.6432 144.069 31.9842C144.184 32.3832 144.239 32.9147 144.234 33.5787C144.212 36.7177 144.189 39.6942 144.168 42.5082C144.167 42.6672 144.245 42.7467 144.405 42.7467L148.434 42.7482C148.623 42.7482 148.716 42.6537 148.714 42.4647C148.673 39.4397 148.656 36.4112 148.663 33.3792C148.666 32.0967 148.53 30.7842 147.937 29.6652C146.992 27.8812 145.406 26.9932 143.178 27.0012C141.596 27.0072 140.201 27.5257 138.993 28.5567C138.762 28.7537 138.563 28.9742 138.399 29.2182C138.387 29.2361 138.365 29.2435 138.344 29.2366ZM211 40.7587V42.5707C210.959 42.6857 210.897 42.7437 210.813 42.7447C209.454 42.7497 208.089 42.7497 206.718 42.7447C206.529 42.7437 206.436 42.6487 206.439 42.4597C206.49 39.4237 206.514 36.3622 206.512 33.2752C206.512 32.3887 206.436 31.2637 205.687 30.6667C204.911 30.0472 203.875 30.2182 203.193 30.9232C202.164 31.9867 201.831 33.6262 201.837 35.0812C201.847 37.5102 201.87 39.9752 201.907 42.4762C201.909 42.6572 201.82 42.7477 201.639 42.7477H197.602C197.532 42.7478 197.465 42.7197 197.416 42.6701C197.368 42.6204 197.341 42.5532 197.343 42.4837C197.396 39.9357 197.419 36.7842 197.413 33.0292C197.411 31.8247 197.095 30.4792 195.712 30.3037C194.68 30.1717 193.883 30.9502 193.435 31.8187C192.882 32.8882 192.735 34.0942 192.741 35.3137C192.753 37.7107 192.772 40.0977 192.799 42.4747C192.801 42.6567 192.711 42.7477 192.529 42.7477H188.44C188.373 42.7478 188.308 42.7208 188.261 42.6729C188.213 42.625 188.187 42.5601 188.188 42.4927C188.261 37.6057 188.281 32.6532 188.247 27.6352C188.246 27.5579 188.276 27.4835 188.33 27.4286C188.385 27.3737 188.459 27.3427 188.536 27.3427L192.259 27.3397C192.498 27.3397 192.61 27.4587 192.595 27.6967L192.508 29.1427C192.5 29.2707 192.534 29.2822 192.609 29.1772C193.491 27.9362 194.672 27.2242 196.153 27.0412C198.412 26.7637 200.457 27.5617 201.321 29.7877C201.353 29.8717 201.391 29.8742 201.435 29.7952C202.266 28.2862 203.48 27.2302 205.206 27.0397C207.421 26.7952 209.473 27.4732 210.384 29.6572C210.738 30.5072 210.916 31.5132 210.918 32.6752C210.922 35.3692 210.949 38.0637 211 40.7587ZM80.514 27.3492C79.7574 27.3492 79.144 27.9626 79.144 28.7192V41.3782C79.144 42.1348 79.7574 42.7482 80.514 42.7482H82.271C83.0276 42.7482 83.641 42.1348 83.641 41.3782V28.7192C83.641 27.9626 83.0276 27.3492 82.271 27.3492H80.514ZM128.277 28.7116C128.277 27.9605 128.885 27.3516 129.637 27.3516H131.411C132.162 27.3516 132.771 27.9605 132.771 28.7116V41.3906C132.771 42.1417 132.162 42.7506 131.411 42.7506H129.637C128.885 42.7506 128.277 42.1417 128.277 41.3906V28.7116ZM151.538 38.4727C150.582 38.4727 149.808 39.2472 149.808 40.2027V41.0177C149.808 41.9731 150.582 42.7477 151.538 42.7477H152.749C153.704 42.7477 154.479 41.9731 154.479 41.0177V40.2027C154.479 39.2472 153.704 38.4727 152.749 38.4727H151.538Z" fill="white"/>
</svg>
