<svg width="242" height="66" viewBox="0 0 242 66" fill="none" xmlns="http://www.w3.org/2000/svg">
<path d="M1 13V5L5 1H13" stroke="white" stroke-width="0.5"/>
<path d="M241 53V61L237 65H229" stroke="white" stroke-width="0.5"/>
<path d="M55.7133 43.3866L48.0332 46.7256V46.3917C46.5527 46.7706 44.9116 46.9893 43.3584 47.0595C36.1353 46.9893 30.4021 43.2092 30.3357 38.712V37.0425C32.7079 40.4913 37.5374 42.8031 43.3584 42.7188C45.3271 42.8031 47.342 42.4906 49.035 42.051L49.7028 40.3815C47.6951 40.9807 45.5036 41.3972 43.3584 41.3832C36.1353 41.3972 30.4021 37.6171 30.3357 33.0357V31.7001C32.7079 34.8888 37.5271 37.2006 43.3584 37.0425C45.9814 37.2006 48.5468 36.6487 50.7045 35.7069L51.0384 34.0374C48.9311 35.1491 46.1995 35.7948 43.3584 35.7069C36.1353 35.7948 30.4021 32.0147 30.3357 27.3594V26.0238C32.7079 29.2864 37.5374 31.5982 43.3584 31.7001C46.6669 31.5982 49.8035 30.7234 52.3741 29.3628L52.708 27.3594C50.3748 29.0885 46.9681 30.2027 43.3584 30.3645C36.1353 30.2027 30.4021 26.4227 30.3357 21.6831C30.4021 17.1755 36.1353 13.3954 43.3584 13.3356C47.664 13.3954 51.6627 14.9054 54.0437 17.3424L54.2756 17.7289L55.9593 17.7355L55.7133 17.3424C53.3452 14.1243 48.6091 12 43.3584 12C35.3667 12 29 16.4049 29 21.6831V22.017V39.0459C29.2804 44.1985 35.5018 48.3951 43.3584 48.3951C48.5468 48.3951 53.2102 46.354 55.7133 43.3866Z" fill="white"/>
<path fill-rule="evenodd" clip-rule="evenodd" d="M55.2849 43.676L52.589 55.1337L71.1235 28.1744L60.6768 32.5552L62.6987 27.1634H72.1345L74.4934 17.3906H45.5121L43.1532 27.1634H52.252L47.5341 47.0459L55.2849 43.676ZM67.0799 31.1953L55.9592 48.0448L57.3072 41.305L49.5564 44.6749L53.9373 25.8034H44.8385L46.5235 18.7266H72.8088L71.1238 25.8034H62.0251L57.9812 35.2392L67.0799 31.1953Z" fill="white"/>
<path fill-rule="evenodd" clip-rule="evenodd" d="M93.7403 24.0328L93.7541 24.0742C93.7726 25.1477 93.4454 25.9886 92.7728 26.5968C92.1001 27.2049 91.1717 27.509 89.9876 27.509C88.7805 27.509 87.806 27.1209 87.0642 26.3445C86.3224 25.5682 85.9515 24.5649 85.9515 23.3347V21.3374C85.9515 20.1119 86.3132 19.1086 87.0366 18.3277C87.7599 17.5467 88.709 17.1562 89.8839 17.1562C91.1095 17.1562 92.0678 17.4557 92.7589 18.0547C93.45 18.6536 93.7864 19.4968 93.7679 20.5841L93.7541 20.6256H91.7914C91.7914 19.9806 91.6359 19.5003 91.3249 19.1846C91.0139 18.869 90.5336 18.7112 89.8839 18.7112C89.2804 18.7112 88.8093 18.9543 88.4706 19.4404C88.132 19.9264 87.9627 20.5542 87.9627 21.3236V23.3347C87.9627 24.1088 88.1412 24.74 88.4983 25.2284C88.8553 25.7168 89.3518 25.9609 89.9876 25.9609C90.5912 25.9609 91.0415 25.8031 91.3387 25.4875C91.6359 25.1719 91.7845 24.687 91.7845 24.0328H93.7403ZM104.822 23.238C104.822 24.4774 104.433 25.4991 103.654 26.303C102.876 27.107 101.862 27.509 100.613 27.509C99.3695 27.509 98.3605 27.1059 97.5864 26.2996C96.8124 25.4933 96.4254 24.4728 96.4254 23.238V21.4273C96.4254 20.1971 96.8112 19.1777 97.583 18.3691C98.3547 17.5605 99.3603 17.1562 100.6 17.1562C101.848 17.1562 102.864 17.5605 103.647 18.3691C104.431 19.1777 104.822 20.1971 104.822 21.4273V23.238ZM102.223 19.5033C102.615 20.0055 102.811 20.6482 102.811 21.4315V23.256C102.811 24.0531 102.617 24.7027 102.23 25.2049C101.843 25.7071 101.304 25.9582 100.613 25.9582C99.9266 25.9582 99.3922 25.7071 99.0098 25.2049C98.6274 24.7027 98.4362 24.0531 98.4362 23.256V21.4315C98.4362 20.6482 98.6262 20.0055 99.0063 19.5033C99.3864 19.0011 99.9174 18.75 100.599 18.75C101.29 18.75 101.832 19.0011 102.223 19.5033ZM110.058 27.3828H108.04V17.3203H110.058V27.3828ZM119.654 27.3828H121.673V17.3203H119.654V24.0932L119.613 24.1001L115.556 17.3203H113.538V27.3828H115.556V20.6031L115.598 20.5962L119.654 27.3828ZM131.822 18.8753H128.947V27.3828H126.928V18.8753H124.095V17.3203H131.822V18.8753ZM136.428 22.9597H140.16V21.4048H136.428V18.8753H140.851V17.3203H134.41V27.3828H140.865V25.8347H136.428V22.9597ZM145.782 25.8347H150.288V27.3828H143.764V17.3203H145.782V25.8347ZM155.13 22.9597H158.862V21.4048H155.13V18.8753H159.553V17.3203H153.112V27.3828H159.566V25.8347H155.13V22.9597ZM170.178 25.9886C169.865 26.3986 169.397 26.7546 168.775 27.0563C168.153 27.3581 167.351 27.509 166.37 27.509C165.154 27.509 164.158 27.1266 163.384 26.3618C162.61 25.597 162.223 24.6041 162.223 23.3831V21.2822C162.223 20.0658 162.599 19.0741 163.35 18.3069C164.101 17.5398 165.066 17.1562 166.246 17.1562C167.476 17.1562 168.418 17.4477 169.072 18.0305C169.726 18.6133 170.042 19.3908 170.019 20.363L170.005 20.4044H168.105C168.105 19.87 167.95 19.4542 167.642 19.157C167.333 18.8598 166.884 18.7112 166.294 18.7112C165.677 18.7112 165.179 18.9497 164.801 19.4265C164.423 19.9034 164.234 20.5173 164.234 21.2683V23.3831C164.234 24.1433 164.428 24.763 164.815 25.2422C165.202 25.7214 165.72 25.9609 166.37 25.9609C166.849 25.9609 167.228 25.9126 167.507 25.8158C167.786 25.7191 168.001 25.597 168.153 25.4495V23.5006H166.218V22.1046H170.178V25.9886ZM175.393 27.3828V23.3606H176.996C177.499 23.3606 177.887 23.5 178.161 23.7787C178.435 24.0574 178.572 24.4479 178.572 24.9501V25.662C178.572 25.9799 178.599 26.3093 178.652 26.6502C178.705 26.9912 178.823 27.2354 179.007 27.3828H181.088V27.2377C180.903 27.0903 180.773 26.8633 180.697 26.5569C180.621 26.2506 180.583 25.9568 180.583 25.6758V24.9363C180.583 24.3327 180.453 23.8259 180.193 23.4159C179.932 23.0058 179.505 22.7132 178.911 22.5382C179.436 22.3078 179.836 22.0049 180.11 21.6294C180.384 21.2539 180.521 20.8081 180.521 20.2921C180.521 19.3568 180.197 18.6277 179.55 18.1047C178.903 17.5818 178.005 17.3203 176.858 17.3203H173.375V27.3828H175.393ZM175.393 21.8053H176.824C177.391 21.8053 177.812 21.6855 178.089 21.4459C178.365 21.2063 178.503 20.8516 178.503 20.3816C178.503 19.9209 178.364 19.5546 178.085 19.2828C177.806 19.0109 177.398 18.875 176.858 18.875H175.393V21.8053ZM185.86 25.2127H189.122L189.806 27.3828H191.914L188.535 17.3203H186.468L183.075 27.3828H185.183L185.86 25.2127ZM186.358 23.6391H188.631L187.519 20.0937H187.477L186.358 23.6391ZM196.382 27.3828V23.7338H198.214C199.37 23.7338 200.28 23.4412 200.943 22.8561C201.607 22.2709 201.939 21.4969 201.939 20.534C201.939 19.571 201.607 18.7947 200.943 18.2049C200.28 17.6152 199.37 17.3203 198.214 17.3203H194.364V27.3828H196.382ZM196.383 22.1785H198.214C198.776 22.1785 199.202 22.0253 199.493 21.7189C199.783 21.4125 199.928 21.022 199.928 20.5475C199.928 20.0637 199.784 19.664 199.496 19.3484C199.208 19.0328 198.781 18.875 198.214 18.875H196.383V22.1785ZM210.982 27.3828H213V17.3203H210.982V21.6466H206.884V17.3203H204.866V27.3828H206.884V23.2016H210.982V27.3828Z" fill="white"/>
</svg>
