<svg width="138" height="28" viewBox="0 0 138 28" fill="none" xmlns="http://www.w3.org/2000/svg">
<path fill-rule="evenodd" clip-rule="evenodd" d="M105.695 22C102.992 22 100.897 21.3306 99.4116 19.9917C97.9258 18.6381 97.1826 16.6372 97.1826 13.9889C97.1826 11.3554 97.9258 9.36921 99.4116 8.03032C100.897 6.67678 103.041 6 105.843 6H109.664C112.466 6 114.609 6.67678 116.096 8.03032C117.581 9.36921 118.324 11.3554 118.324 13.9889C118.324 16.6372 117.581 18.6381 116.096 19.9917C114.609 21.3306 112.501 22 109.77 22H105.695ZM106.076 8.85997C104.506 8.85997 103.281 9.15424 102.404 9.74274C101.537 10.3243 100.988 11.2435 100.757 12.5002H100.749C100.632 13.4526 100.629 14.4167 100.741 15.3698L100.749 15.4384H100.753C100.982 16.7208 101.532 17.6544 102.404 18.2393C103.281 18.8278 104.527 19.1221 106.14 19.1221H109.43C111.015 19.1221 112.239 18.8278 113.102 18.2393C113.975 17.6544 114.525 16.7208 114.754 15.4384H114.757L114.765 15.3698C114.877 14.4167 114.875 13.4526 114.757 12.5002H114.75C114.518 11.2435 113.969 10.3243 113.102 9.74274C112.225 9.15424 111.001 8.85997 109.43 8.85997H106.076ZM124.33 14.0799L118.641 21.9586H122.802L127.344 15.5144H129.297L133.84 21.9586H138L132.311 14.0799L138 6.17926H133.861L129.297 12.6454H127.344L122.781 6.17926H118.641L124.33 14.0799ZM84.4979 21.9586L77.6632 6.17926H81.3564L86.9814 19.1999H87.2575L92.8825 6.17926H96.5757L89.7411 21.9586H84.4979ZM58.6307 6.17926V21.9586H75.2722V19.0896H62.0268V15.4041H74.041V12.5351H62.0268V9.04821H75.2722V6.17926H58.6307ZM38 21.9586V6.17926H50.7147C52.2854 6.17926 53.5024 6.59121 54.3656 7.4151C55.243 8.23903 55.6817 9.48963 55.6817 11.1668C55.6817 12.5939 55.3632 13.7121 54.7265 14.5213C54.0897 15.3305 53.184 15.8381 52.0095 16.0441L55.5118 21.9586H51.6486L48.401 16.1544H41.3963V21.9586H38ZM50.3112 9.03922H41.3961V13.2544L50.3112 13.2765C50.9338 13.2765 51.4079 13.1146 51.7334 12.7909C52.073 12.4673 52.2428 11.9229 52.2428 11.1578C52.2428 10.3781 52.073 9.8337 51.7334 9.52473C51.4079 9.20106 50.9338 9.03922 50.3112 9.03922Z" fill="white"/>
<path fill-rule="evenodd" clip-rule="evenodd" d="M2.14262 2.07921C2.1076 2.07921 2.07921 2.1076 2.07921 2.14262V9.74123C2.77655 9.2237 3.64215 8.82409 4.6244 8.82409C7.48297 8.82409 9.8003 11.1415 9.8003 14C9.8003 16.8585 7.48297 19.1759 4.6244 19.1759C3.64215 19.1759 2.77655 18.7763 2.07921 18.2588V25.8574C2.07921 25.8924 2.10759 25.9208 2.14262 25.9208H9.74123C9.22369 25.2235 8.82409 24.3578 8.82409 23.3756C8.82409 20.5171 11.1415 18.1997 14 18.1997C16.8585 18.1997 19.1759 20.5171 19.1759 23.3756C19.1759 24.3578 18.7763 25.2235 18.2588 25.9208H25.8574C25.8924 25.9208 25.9208 25.8924 25.9208 25.8574V18.2588C25.2235 18.7763 24.3578 19.1759 23.3756 19.1759C20.5171 19.1759 18.1997 16.8585 18.1997 14C18.1997 11.1415 20.5171 8.82409 23.3756 8.82409C24.3578 8.82409 25.2235 9.22369 25.9208 9.74123V2.14262C25.9208 2.10759 25.8924 2.07921 25.8574 2.07921H18.2588C18.7763 2.77655 19.1759 3.64215 19.1759 4.6244C19.1759 7.48297 16.8585 9.8003 14 9.8003C11.1415 9.8003 8.82409 7.48297 8.82409 4.6244C8.82409 3.64215 9.2237 2.77655 9.74123 2.07921H2.14262ZM0 2.14262C0 0.959282 0.959282 0 2.14262 0H10.2877C11.1998 0 11.7148 0.697153 11.8961 1.22179C12.0786 1.74976 12.0863 2.51474 11.5832 3.10261L11.5831 3.10262C11.1314 3.63034 10.9033 4.15229 10.9033 4.6244C10.9033 6.33464 12.2898 7.7211 14 7.7211C15.7102 7.7211 17.0967 6.33465 17.0967 4.6244C17.0967 4.15229 16.8686 3.63034 16.4169 3.10262L16.4168 3.10261C15.9137 2.51473 15.9214 1.74976 16.1039 1.22179C16.2852 0.697153 16.8002 0 17.7123 0H25.8574C27.0407 0 28 0.959284 28 2.14262V10.2877C28 11.1998 27.3028 11.7148 26.7782 11.8961C26.2502 12.0786 25.4853 12.0863 24.8974 11.5832L24.8973 11.5831C24.3697 11.1314 23.8477 10.9033 23.3756 10.9033C21.6654 10.9033 20.2789 12.2898 20.2789 14C20.2789 15.7102 21.6654 17.0967 23.3756 17.0967C23.8477 17.0967 24.3697 16.8686 24.8973 16.4169L24.8974 16.4168C25.4853 15.9137 26.2502 15.9214 26.7782 16.1039C27.3029 16.2852 28 16.8002 28 17.7123V25.8574C28 27.0407 27.0407 28 25.8574 28H17.7123C16.8002 28 16.2852 27.3029 16.1039 26.7782C15.9214 26.2502 15.9137 25.4853 16.4168 24.8974L16.4169 24.8973C16.8686 24.3697 17.0967 23.8477 17.0967 23.3756C17.0967 21.6654 15.7102 20.2789 14 20.2789C12.2898 20.2789 10.9033 21.6654 10.9033 23.3756C10.9033 23.8477 11.1314 24.3697 11.5831 24.8973L11.5832 24.8974C12.0863 25.4853 12.0786 26.2502 11.8961 26.7782C11.7148 27.3028 11.1998 28 10.2877 28H2.14262C0.959284 28 0 27.0407 0 25.8574V17.7123C0 16.8002 0.697153 16.2852 1.22179 16.1039C1.74976 15.9214 2.51473 15.9137 3.10261 16.4168L3.10262 16.4169C3.63034 16.8686 4.15229 17.0967 4.6244 17.0967C6.33465 17.0967 7.7211 15.7102 7.7211 14C7.7211 12.2898 6.33464 10.9033 4.6244 10.9033C4.15229 10.9033 3.63034 11.1314 3.10262 11.5831L3.10261 11.5832C2.51474 12.0863 1.74976 12.0786 1.22179 11.8961C0.697153 11.7148 0 11.1998 0 10.2877V2.14262Z" fill="white"/>
</svg>
