<svg width="801" height="818" viewBox="0 0 801 818" fill="none" xmlns="http://www.w3.org/2000/svg">
<mask id="mask0_32088_3834" style="mask-type:alpha" maskUnits="userSpaceOnUse" x="0" y="0" width="801" height="818">
<path d="M0 0H801V818H0V0Z" fill="#D9D9D9"/>
</mask>
<g mask="url(#mask0_32088_3834)">
<path fill-rule="evenodd" clip-rule="evenodd" d="M412.008 38.6184L236 -63L235.5 -62.134L411.008 39.1958L371.008 62.2898L215.5 -27.493L215 -26.6269L370.008 62.8671L330.008 85.9612L195 8.01408L194.5 8.8801L329.008 86.5385L289.008 109.633L174.5 43.5211L174 44.3871L288.008 110.21L248.008 133.304L154 79.0282L153.5 79.8942L247.008 133.881L207.008 156.975L133.5 114.535L133 115.401L206.008 157.553L166.008 180.647L113 150.042L112.5 150.908L165.008 181.224L125.008 204.318L92.5 185.549L92 186.415L124.008 204.895L84.0083 227.989L72 221.056L71.5 221.922L83.0083 228.567L-110 340L-109.5 340.866L84.0083 229.144L124.008 252.238L84.0083 275.332L51.5 256.563L51 257.429L83.0083 275.909L43.0083 299.003L31 292.07L30.5 292.936L42.0083 299.581L-89.4999 375.507L-88.9999 376.373L43.0083 300.158L83.0083 323.252L43.0083 346.346L10.5 327.577L10 328.443L42.0083 346.923L2.00828 370.017L-10 363.085L-10.5 363.951L1.00827 370.595L-68.9999 411.014L-68.4999 411.88L2.00827 371.172L42.0083 394.266L2.0083 417.36L-30.5 398.592L-31 399.458L1.00829 417.938L-38.9917 441.032L-51 434.099L-51.5 434.965L-39.9917 441.609L-48.4999 446.521L-47.9999 447.387L-38.9917 442.186L1.00827 465.28L-27.9999 482.028L-27.4999 482.894L2.00827 465.858L42.0083 488.952L2.00832 512.046L-71.5 469.606L-72 470.472L1.00832 512.623L-7.4999 517.535L-6.9999 518.401L2.00832 513.2L42.0083 536.294L13.0001 553.042L13.5001 553.908L43.0083 536.872L83.0083 559.966L43.0083 583.06L-92 505.113L-92.5 505.979L42.0083 583.637L33.5001 588.549L34.0001 589.415L43.0082 584.214L83.0083 607.308L54.0001 624.056L54.5001 624.922L84.0083 607.886L124.008 630.98L84.0083 654.074L-112.5 540.62L-113 541.486L83.0083 654.651L74.5001 659.563L75.0001 660.429L84.0083 655.229L124.008 678.323L95.0001 695.07L95.5001 695.936L125.008 678.9L165.008 701.994L115.5 730.577L116 731.443L166.008 702.571L206.008 725.665L136 766.084L136.5 766.951L207.008 726.243L247.008 749.337L156.5 801.592L157 802.458L248.008 749.914L288.008 773.008L177 837.099L177.5 837.965L289.008 773.585L329.008 796.679L197.5 872.606L198 873.472L330.008 797.257L370.008 820.351L218 908.113L218.5 908.979L371.008 820.928L411.008 844.022L238.5 943.62L239 944.486L412.008 844.599L545.179 921.486L545.679 920.62L413.008 844.022L453.008 820.928L565.679 885.979L566.179 885.113L454.008 820.351L494.008 797.257L586.179 850.472L586.679 849.606L495.008 796.679L535.008 773.585L606.679 814.965L607.179 814.099L536.008 773.008L576.008 749.914L627.179 779.458L627.679 778.592L577.008 749.337L617.008 726.243L647.679 743.951L648.179 743.084L618.008 725.665L658.008 702.571L668.179 708.443L668.679 707.577L659.008 701.994L897.179 564.486L896.679 563.62L658.008 701.417L618.008 678.323L658.008 655.229L688.679 672.936L689.179 672.07L659.008 654.651L699.008 631.557L709.179 637.429L709.679 636.563L700.008 630.98L876.679 528.979L876.179 528.113L699.008 630.402L659.008 607.308L699.008 584.214L729.679 601.922L730.179 601.056L700.008 583.637L740.008 560.543L750.179 566.415L750.679 565.549L741.008 559.966L856.179 493.472L855.679 492.606L740.008 559.388L700.008 536.294L740.008 513.2L770.679 530.908L771.179 530.042L741.008 512.623L781.008 489.529L791.179 495.401L791.679 494.535L782.008 488.952L835.679 457.965L835.179 457.099L781.008 488.374L741.008 465.28L781.008 442.186L811.679 459.894L812.179 459.028L782.008 441.609L815.179 422.458L814.679 421.592L781.008 441.032L741.008 417.938L781.008 394.844L832.179 424.387L832.679 423.521L782.008 394.266L794.679 386.951L794.179 386.085L781.008 393.689L741.008 370.595L774.179 351.443L773.679 350.577L740.008 370.017L700.008 346.923L740.008 323.829L852.679 388.88L853.179 388.014L741.008 323.252L753.679 315.936L753.179 315.07L740.008 322.675L700.008 299.581L733.179 280.429L732.679 279.563L699.008 299.003L659.008 275.909L699.008 252.815L873.179 353.373L873.679 352.507L700.008 252.238L712.679 244.922L712.179 244.056L699.008 251.661L659.008 228.567L692.179 209.415L691.679 208.549L658.008 227.989L618.008 204.895L658.008 181.801L893.679 317.866L894.179 317L659.008 181.224L671.679 173.908L671.179 173.042L658.008 180.647L618.008 157.553L651.179 138.401L650.679 137.535L617.008 156.975L577.008 133.881L630.679 102.894L630.179 102.028L576.008 133.304L536.008 110.21L610.179 67.3872L609.679 66.5211L535.008 109.633L495.008 86.5385L589.679 31.8801L589.179 31.0141L494.008 85.9612L454.008 62.8671L569.179 -3.62693L568.679 -4.49296L453.008 62.2898L413.008 39.1958L548.679 -39.134L548.179 -40L412.008 38.6184ZM412.008 39.7731L372.008 62.8671L412.008 85.9612L452.008 62.8671L412.008 39.7731ZM453.008 63.4445L413.008 86.5385L453.008 109.633L493.008 86.5385L453.008 63.4445ZM494.008 87.1159L454.008 110.21L494.008 133.304L534.008 110.21L494.008 87.1159ZM535.008 110.787L495.008 133.881L535.008 156.975L575.008 133.881L535.008 110.787ZM576.008 134.459L536.008 157.553L576.008 180.647L616.008 157.553L576.008 134.459ZM617.008 158.13L577.008 181.224L617.008 204.318L657.008 181.224L617.008 158.13ZM616.008 204.895L576.008 181.801L536.008 204.895L576.008 227.989L616.008 204.895ZM575.008 228.567L535.008 205.473L495.008 228.567L535.008 251.661L575.008 228.567ZM536.008 252.238L576.008 229.144L616.008 252.238L576.008 275.332L536.008 252.238ZM534.008 252.238L494.008 229.144L454.008 252.238L494.008 275.332L534.008 252.238ZM495.008 275.909L535.008 252.815L575.008 275.909L535.008 299.003L495.008 275.909ZM493.008 275.909L453.008 252.815L413.008 275.909L453.008 299.003L493.008 275.909ZM454.008 299.581L494.008 276.487L534.008 299.581L494.008 322.675L454.008 299.581ZM452.008 299.581L412.008 276.487L372.008 299.581L412.008 322.675L452.008 299.581ZM413.008 323.252L453.008 300.158L493.008 323.252L453.008 346.346L413.008 323.252ZM411.008 323.252L371.008 300.158L331.008 323.252L371.008 346.346L411.008 323.252ZM372.008 346.923L412.008 323.829L452.008 346.923L412.008 370.017L372.008 346.923ZM370.008 346.923L330.008 323.829L290.008 346.923L330.008 370.017L370.008 346.923ZM331.008 370.595L371.008 347.501L411.008 370.595L371.008 393.689L331.008 370.595ZM329.008 370.595L289.008 347.501L249.008 370.595L289.008 393.689L329.008 370.595ZM290.008 394.266L330.008 371.172L370.008 394.266L330.008 417.36L290.008 394.266ZM288.008 394.266L248.008 371.172L208.008 394.266L248.008 417.36L288.008 394.266ZM249.008 417.938L289.008 394.844L329.008 417.938L289.008 441.032L249.008 417.938ZM247.008 417.938L207.008 394.844L167.008 417.938L207.008 441.032L247.008 417.938ZM208.008 441.609L248.008 418.515L288.008 441.609L248.008 464.703L208.008 441.609ZM206.008 441.609L166.008 418.515L126.008 441.609L166.008 464.703L206.008 441.609ZM167.008 465.28L207.008 442.186L247.008 465.28L207.008 488.374L167.008 465.28ZM165.008 465.28L125.008 442.186L85.0083 465.28L125.008 488.374L165.008 465.28ZM126.008 488.952L166.008 465.858L206.008 488.952L166.008 512.046L126.008 488.952ZM124.008 488.952L84.0083 465.858L44.0083 488.952L84.0083 512.046L124.008 488.952ZM85.0083 512.623L125.008 489.529L165.008 512.623L125.008 535.717L85.0083 512.623ZM83.0083 512.623L43.0083 489.529L3.00832 512.623L43.0083 535.717L83.0083 512.623ZM44.0083 536.294L84.0083 513.2L124.008 536.294L84.0083 559.388L44.0083 536.294ZM84.0083 560.543L44.0082 583.637L84.0083 606.731L124.008 583.637L84.0083 560.543ZM125.008 583.06L85.0083 559.966L125.008 536.872L165.008 559.966L125.008 583.06ZM125.008 584.214L85.0083 607.308L125.008 630.402L165.008 607.308L125.008 584.214ZM166.008 606.731L126.008 583.637L166.008 560.543L206.008 583.637L166.008 606.731ZM166.008 607.886L126.008 630.98L166.008 654.074L206.008 630.98L166.008 607.886ZM207.008 630.402L167.008 607.308L207.008 584.214L247.008 607.308L207.008 630.402ZM207.008 631.557L167.008 654.651L207.008 677.745L247.008 654.651L207.008 631.557ZM248.008 654.074L208.008 630.98L248.008 607.886L288.008 630.98L248.008 654.074ZM248.008 655.229L208.008 678.323L248.008 701.417L288.008 678.323L248.008 655.229ZM289.008 677.745L249.008 654.651L289.008 631.557L329.008 654.651L289.008 677.745ZM289.008 678.9L249.008 701.994L289.008 725.088L329.008 701.994L289.008 678.9ZM330.008 701.417L290.008 678.323L330.008 655.229L370.008 678.323L330.008 701.417ZM330.008 702.571L290.008 725.665L330.008 748.759L370.008 725.665L330.008 702.571ZM371.008 725.088L331.008 701.994L371.008 678.9L411.008 701.994L371.008 725.088ZM371.008 726.243L331.008 749.337L371.008 772.431L411.008 749.337L371.008 726.243ZM412.008 748.759L372.008 725.665L412.008 702.571L452.008 725.665L412.008 748.759ZM412.008 749.914L372.008 773.008L412.008 796.102L452.008 773.008L412.008 749.914ZM453.008 772.431L413.008 749.337L453.008 726.243L493.008 749.337L453.008 772.431ZM453.008 773.585L413.008 796.679L453.008 819.773L493.008 796.679L453.008 773.585ZM494.008 796.102L454.008 773.008L494.008 749.914L534.008 773.008L494.008 796.102ZM535.008 772.431L575.008 749.337L535.008 726.243L495.008 749.337L535.008 772.431ZM494.008 748.759L534.008 725.665L494.008 702.571L454.008 725.665L494.008 748.759ZM453.008 725.088L493.008 701.994L453.008 678.9L413.008 701.994L453.008 725.088ZM412.008 701.417L452.008 678.323L412.008 655.229L372.008 678.323L412.008 701.417ZM371.008 677.745L411.008 654.651L371.008 631.557L331.008 654.651L371.008 677.745ZM330.008 654.074L370.008 630.98L330.008 607.886L290.008 630.98L330.008 654.074ZM289.008 630.402L329.008 607.308L289.008 584.214L249.008 607.308L289.008 630.402ZM248.008 606.731L288.008 583.637L248.008 560.543L208.008 583.637L248.008 606.731ZM207.008 583.06L247.008 559.966L207.008 536.872L167.008 559.966L207.008 583.06ZM166.008 559.388L206.008 536.294L166.008 513.2L126.008 536.294L166.008 559.388ZM167.008 512.623L207.008 535.717L247.008 512.623L207.008 489.529L167.008 512.623ZM208.008 488.952L248.008 512.046L288.008 488.952L248.008 465.858L208.008 488.952ZM249.008 465.28L289.008 488.374L329.008 465.28L289.008 442.186L249.008 465.28ZM290.008 441.609L330.008 464.703L370.008 441.609L330.008 418.515L290.008 441.609ZM331.008 417.938L371.008 441.032L411.008 417.938L371.008 394.844L331.008 417.938ZM372.008 394.266L412.008 417.36L452.008 394.266L412.008 371.172L372.008 394.266ZM413.008 370.595L453.008 393.689L493.008 370.595L453.008 347.501L413.008 370.595ZM454.008 346.923L494.008 370.017L534.008 346.923L494.008 323.829L454.008 346.923ZM495.008 323.252L535.008 346.346L575.008 323.252L535.008 300.158L495.008 323.252ZM536.008 299.581L576.008 322.675L616.008 299.581L576.008 276.487L536.008 299.581ZM577.008 275.909L617.008 299.003L657.008 275.909L617.008 252.815L577.008 275.909ZM618.008 252.238L658.008 275.332L698.008 252.238L658.008 229.144L618.008 252.238ZM657.008 228.567L617.008 205.473L577.008 228.567L617.008 251.661L657.008 228.567ZM658.008 276.487L618.008 299.581L658.008 322.675L698.008 299.581L658.008 276.487ZM699.008 300.158L659.008 323.252L699.008 346.346L739.008 323.252L699.008 300.158ZM698.008 346.923L658.008 323.829L618.008 346.923L658.008 370.017L698.008 346.923ZM657.008 370.595L617.008 347.501L577.008 370.595L617.008 393.689L657.008 370.595ZM618.008 394.266L658.008 371.172L698.008 394.266L658.008 417.36L618.008 394.266ZM616.008 394.266L576.008 371.172L536.008 394.266L576.008 417.36L616.008 394.266ZM577.008 417.938L617.008 394.844L657.008 417.938L617.008 441.032L577.008 417.938ZM575.008 417.938L535.008 394.844L495.008 417.938L535.008 441.032L575.008 417.938ZM536.008 441.609L576.008 418.515L616.008 441.609L576.008 464.703L536.008 441.609ZM534.008 441.609L494.008 418.515L454.008 441.609L494.008 464.703L534.008 441.609ZM495.008 465.28L535.008 442.186L575.008 465.28L535.008 488.374L495.008 465.28ZM493.008 465.28L453.008 442.186L413.008 465.28L453.008 488.374L493.008 465.28ZM454.008 488.952L494.008 465.858L534.008 488.952L494.008 512.046L454.008 488.952ZM452.008 488.952L412.008 465.858L372.008 488.952L412.008 512.046L452.008 488.952ZM413.008 512.623L453.008 489.529L493.008 512.623L453.008 535.717L413.008 512.623ZM411.008 512.623L371.008 489.529L331.008 512.623L371.008 535.717L411.008 512.623ZM372.008 536.294L412.008 513.2L452.008 536.294L412.008 559.388L372.008 536.294ZM370.008 536.294L330.008 513.2L290.008 536.294L330.008 559.388L370.008 536.294ZM331.008 559.966L371.008 536.872L411.008 559.966L371.008 583.06L331.008 559.966ZM329.008 559.966L289.008 536.872L249.008 559.966L289.008 583.06L329.008 559.966ZM290.008 583.637L330.008 560.543L370.008 583.637L330.008 606.731L290.008 583.637ZM331.008 607.308L371.008 630.402L411.008 607.308L371.008 584.214L331.008 607.308ZM372.008 583.637L412.008 606.731L452.008 583.637L412.008 560.543L372.008 583.637ZM413.008 559.966L453.008 583.06L493.008 559.966L453.008 536.872L413.008 559.966ZM454.008 536.294L494.008 559.388L534.008 536.294L494.008 513.2L454.008 536.294ZM495.008 512.623L535.008 535.717L575.008 512.623L535.008 489.529L495.008 512.623ZM536.008 488.952L576.008 512.046L616.008 488.952L576.008 465.858L536.008 488.952ZM577.008 465.28L617.008 488.374L657.008 465.28L617.008 442.186L577.008 465.28ZM618.008 441.609L658.008 464.703L698.008 441.609L658.008 418.515L618.008 441.609ZM659.008 417.938L699.008 441.032L739.008 417.938L699.008 394.844L659.008 417.938ZM700.008 394.266L740.008 417.36L780.008 394.266L740.008 371.172L700.008 394.266ZM739.008 370.595L699.008 347.501L659.008 370.595L699.008 393.689L739.008 370.595ZM740.008 418.515L700.008 441.609L740.008 464.703L780.008 441.609L740.008 418.515ZM739.008 465.28L699.008 442.186L659.008 465.28L699.008 488.374L739.008 465.28ZM698.008 488.952L658.008 465.858L618.008 488.952L658.008 512.046L698.008 488.952ZM659.008 512.623L699.008 489.529L739.008 512.623L699.008 535.717L659.008 512.623ZM657.008 512.623L617.008 489.529L577.008 512.623L617.008 535.717L657.008 512.623ZM618.008 536.294L658.008 513.2L698.008 536.294L658.008 559.388L618.008 536.294ZM616.008 536.294L576.008 513.2L536.008 536.294L576.008 559.388L616.008 536.294ZM577.008 559.966L617.008 536.872L657.008 559.966L617.008 583.06L577.008 559.966ZM575.008 559.966L535.008 536.872L495.008 559.966L535.008 583.06L575.008 559.966ZM536.008 583.637L576.008 560.543L616.008 583.637L576.008 606.731L536.008 583.637ZM534.008 583.637L494.008 560.543L454.008 583.637L494.008 606.731L534.008 583.637ZM495.008 607.308L535.008 584.214L575.008 607.308L535.008 630.402L495.008 607.308ZM493.008 607.308L453.008 584.214L413.008 607.308L453.008 630.402L493.008 607.308ZM454.008 630.98L494.008 607.886L534.008 630.98L494.008 654.074L454.008 630.98ZM452.008 630.98L412.008 607.886L372.008 630.98L412.008 654.074L452.008 630.98ZM413.008 654.651L453.008 631.557L493.008 654.651L453.008 677.745L413.008 654.651ZM454.008 678.323L494.008 701.417L534.008 678.323L494.008 655.229L454.008 678.323ZM495.008 654.651L535.008 677.745L575.008 654.651L535.008 631.557L495.008 654.651ZM536.008 630.98L576.008 654.074L616.008 630.98L576.008 607.886L536.008 630.98ZM577.008 607.308L617.008 630.402L657.008 607.308L617.008 584.214L577.008 607.308ZM618.008 583.637L658.008 606.731L698.008 583.637L658.008 560.543L618.008 583.637ZM659.008 559.966L699.008 583.06L739.008 559.966L699.008 536.872L659.008 559.966ZM658.008 607.886L618.008 630.98L658.008 654.074L698.008 630.98L658.008 607.886ZM657.008 654.651L617.008 631.557L577.008 654.651L617.008 677.745L657.008 654.651ZM616.008 678.323L576.008 655.229L536.008 678.323L576.008 701.417L616.008 678.323ZM575.008 701.994L535.008 678.9L495.008 701.994L535.008 725.088L575.008 701.994ZM536.008 725.665L576.008 702.571L616.008 725.665L576.008 748.759L536.008 725.665ZM617.008 725.088L577.008 701.994L617.008 678.9L657.008 701.994L617.008 725.088ZM740.008 512.046L700.008 488.952L740.008 465.858L780.008 488.952L740.008 512.046ZM248.008 559.388L288.008 536.294L248.008 513.2L208.008 536.294L248.008 559.388ZM249.008 512.623L289.008 535.717L329.008 512.623L289.008 489.529L249.008 512.623ZM290.008 488.952L330.008 512.046L370.008 488.952L330.008 465.858L290.008 488.952ZM331.008 465.28L371.008 488.374L411.008 465.28L371.008 442.186L331.008 465.28ZM372.008 441.609L412.008 464.703L452.008 441.609L412.008 418.515L372.008 441.609ZM413.008 417.938L453.008 441.032L493.008 417.938L453.008 394.844L413.008 417.938ZM454.008 394.266L494.008 417.36L534.008 394.266L494.008 371.172L454.008 394.266ZM495.008 370.595L535.008 393.689L575.008 370.595L535.008 347.501L495.008 370.595ZM536.008 346.923L576.008 370.017L616.008 346.923L576.008 323.829L536.008 346.923ZM577.008 323.252L617.008 346.346L657.008 323.252L617.008 300.158L577.008 323.252ZM452.008 820.351L412.008 797.257L372.008 820.351L412.008 843.445L452.008 820.351ZM371.008 819.773L411.008 796.679L371.008 773.585L331.008 796.679L371.008 819.773ZM330.008 796.102L370.008 773.008L330.008 749.914L290.008 773.008L330.008 796.102ZM289.008 772.431L329.008 749.337L289.008 726.243L249.008 749.337L289.008 772.431ZM248.008 748.759L288.008 725.665L248.008 702.571L208.008 725.665L248.008 748.759ZM207.008 725.088L247.008 701.994L207.008 678.9L167.008 701.994L207.008 725.088ZM166.008 701.417L206.008 678.323L166.008 655.229L126.008 678.323L166.008 701.417ZM125.008 677.745L165.008 654.651L125.008 631.557L85.0083 654.651L125.008 677.745ZM43.0083 488.374L83.0083 465.28L43.0083 442.186L3.00828 465.28L43.0083 488.374ZM2.00827 464.703L42.0083 441.609L2.0083 418.515L-37.9917 441.609L2.00827 464.703ZM3.0083 417.938L43.0083 441.032L83.0083 417.938L43.0083 394.844L3.0083 417.938ZM44.0083 394.266L84.0083 417.36L124.008 394.266L84.0083 371.172L44.0083 394.266ZM85.0083 370.595L125.008 393.689L165.008 370.595L125.008 347.501L85.0083 370.595ZM124.008 346.923L84.0083 370.017L44.0083 346.923L84.0083 323.829L124.008 346.923ZM126.008 346.923L166.008 370.017L206.008 346.923L166.008 323.829L126.008 346.923ZM165.008 323.252L125.008 346.346L85.0083 323.252L125.008 300.158L165.008 323.252ZM167.008 323.252L207.008 346.346L247.008 323.252L207.008 300.158L167.008 323.252ZM206.008 299.581L166.008 322.675L126.008 299.581L166.008 276.487L206.008 299.581ZM208.008 299.581L248.008 322.675L288.008 299.581L248.008 276.487L208.008 299.581ZM247.008 275.909L207.008 299.003L167.008 275.909L207.008 252.815L247.008 275.909ZM249.008 275.909L289.008 299.003L329.008 275.909L289.008 252.815L249.008 275.909ZM288.008 252.238L248.008 275.332L208.008 252.238L248.008 229.144L288.008 252.238ZM290.008 252.238L330.008 275.332L370.008 252.238L330.008 229.144L290.008 252.238ZM329.008 228.567L289.008 251.661L249.008 228.567L289.008 205.473L329.008 228.567ZM331.008 228.567L371.008 251.661L411.008 228.567L371.008 205.473L331.008 228.567ZM370.008 204.895L330.008 227.989L290.008 204.895L330.008 181.801L370.008 204.895ZM372.008 204.895L412.008 227.989L452.008 204.895L412.008 181.801L372.008 204.895ZM411.008 181.224L371.008 204.318L331.008 181.224L371.008 158.13L411.008 181.224ZM413.008 181.224L453.008 204.318L493.008 181.224L453.008 158.13L413.008 181.224ZM452.008 157.553L412.008 180.647L372.008 157.553L412.008 134.459L452.008 157.553ZM454.008 157.553L494.008 180.647L534.008 157.553L494.008 134.459L454.008 157.553ZM493.008 133.881L453.008 156.975L413.008 133.881L453.008 110.787L493.008 133.881ZM452.008 110.21L412.008 87.1159L372.008 110.21L412.008 133.304L452.008 110.21ZM411.008 133.881L371.008 110.787L331.008 133.881L371.008 156.975L411.008 133.881ZM370.008 157.553L330.008 134.459L290.008 157.553L330.008 180.647L370.008 157.553ZM329.008 181.224L289.008 158.13L249.008 181.224L289.008 204.318L329.008 181.224ZM288.008 204.895L248.008 181.801L208.008 204.895L248.008 227.989L288.008 204.895ZM247.008 228.567L207.008 205.473L167.008 228.567L207.008 251.661L247.008 228.567ZM206.008 252.238L166.008 229.144L126.008 252.238L166.008 275.332L206.008 252.238ZM165.008 275.909L125.008 252.815L85.0083 275.909L125.008 299.003L165.008 275.909ZM124.008 299.581L84.0083 276.487L44.0083 299.581L84.0083 322.675L124.008 299.581ZM125.008 251.661L165.008 228.567L125.008 205.473L85.0083 228.567L125.008 251.661ZM126.008 204.895L166.008 227.989L206.008 204.895L166.008 181.801L126.008 204.895ZM167.008 181.224L207.008 204.318L247.008 181.224L207.008 158.13L167.008 181.224ZM208.008 157.553L248.008 180.647L288.008 157.553L248.008 134.459L208.008 157.553ZM249.008 133.881L289.008 156.975L329.008 133.881L289.008 110.787L249.008 133.881ZM290.008 110.21L330.008 133.304L370.008 110.21L330.008 87.1159L290.008 110.21ZM331.008 86.5385L371.008 109.633L411.008 86.5385L371.008 63.4445L331.008 86.5385ZM535.008 158.13L495.008 181.224L535.008 204.318L575.008 181.224L535.008 158.13ZM534.008 204.895L494.008 181.801L454.008 204.895L494.008 227.989L534.008 204.895ZM493.008 228.567L453.008 205.473L413.008 228.567L453.008 251.661L493.008 228.567ZM452.008 252.238L412.008 229.144L372.008 252.238L412.008 275.332L452.008 252.238ZM411.008 275.909L371.008 252.815L331.008 275.909L371.008 299.003L411.008 275.909ZM370.008 299.581L330.008 276.487L290.008 299.581L330.008 322.675L370.008 299.581ZM329.008 323.252L289.008 300.158L249.008 323.252L289.008 346.346L329.008 323.252ZM288.008 346.923L248.008 323.829L208.008 346.923L248.008 370.017L288.008 346.923ZM247.008 370.595L207.008 347.501L167.008 370.595L207.008 393.689L247.008 370.595ZM206.008 394.266L166.008 371.172L126.008 394.266L166.008 417.36L206.008 394.266ZM165.008 417.938L125.008 394.844L85.0083 417.938L125.008 441.032L165.008 417.938ZM124.008 441.609L84.0083 418.515L44.0083 441.609L84.0083 464.703L124.008 441.609ZM43.0083 347.501L83.0083 370.595L43.0083 393.689L3.00828 370.595L43.0083 347.501Z" fill="url(#paint0_radial_32088_3834)" fill-opacity="0.08"/>
</g>
<defs>
<radialGradient id="paint0_radial_32088_3834" cx="0" cy="0" r="1" gradientUnits="userSpaceOnUse" gradientTransform="translate(392.09 440.743) rotate(90.0124) scale(413.757 414.863)">
<stop stop-color="white"/>
<stop offset="1" stop-color="white" stop-opacity="0"/>
</radialGradient>
</defs>
</svg>
